PathFileType	4	(X/Y/Z)	TVC_26_BWA1_walk_RCNL2025.trc
DataRate	CameraRate	NumFrames	NumMarkers	Units	OrigDataRate	OrigDataStartFrame	OrigNumFrames
100	100	9	27	mm	100	92	728
Frame#	Time	R_Shoulder			L_Shoulder			C7			J_Notch			R_Elbow			L_Elbow			R_Wrist			L_Wrist			R_Asis			L_Asis			R_Psis			L_Psis			Sacral			Thoracic			Sternum			R_Thigh_Lateral			R_Knee_Lateral			R_Shank_Lateral			R_Ankle_Lateral			R_Heel			R_Toe			L_Thigh_Lateral			L_Knee_Lateral			L_Shank_Lateral			L_Ankle_Lateral			L_Heel			L_Toe		
		X1	Y1	Z1	X2	Y2	Z2	X3	Y3	Z3	X4	Y4	Z4	X5	Y5	Z5	X6	Y6	Z6	X7	Y7	Z7	X8	Y8	Z8	X9	Y9	Z9	X10	Y10	Z10	X11	Y11	Z11	X12	Y12	Z12	X13	Y13	Z13	X14	Y14	Z14	X15	Y15	Z15	X16	Y16	Z16	X17	Y17	Z17	X18	Y18	Z18	X19	Y19	Z19	X20	Y20	Z20	X21	Y21	Z21	X22	Y22	Z22	X23	Y23	Z23	X24	Y24	Z24	X25	Y25	Z25	X26	Y26	Z26	X27	Y27	Z27
92	0.91000000	-1589.205200	1360.285767	200.735779	-1615.452148	1365.187622	-116.224892	-1677.667114	1402.209839	55.645676	-1533.754883	1298.871582	46.977833	-1600.573975	1029.465698	339.631805	-1657.906982	1032.933960	-206.202744	-1522.887268	835.005463	393.752853	-1572.959717	828.235687	-192.658379	-1520.409912	954.153442	206.159912	-1534.036621	955.067871	-86.157318	-1742.140381	949.038208	135.529526	-1740.198364	947.734375	-10.289863	-1741.169373	948.386292	62.619832	-1746.803101	1124.484375	44.106480	-1488.295288	1063.920410	37.964737	-1475.628052	583.945557	265.791168	-1403.601929	478.089966	213.036194	-1414.161011	301.514343	268.650787	-1420.443237	94.525452	217.008331	-1466.303589	70.904984	171.125732	-1284.210571	70.104019	195.961929	-1543.567505	583.108398	-118.835144	-1572.954102	464.828613	-47.740913	-1632.699463	251.164627	-75.626434	-1692.050171	68.102066	10.473359	-1736.720825	58.121704	67.554359	-1558.483765	41.985935	8.478886
93	0.92000000	-1585.081177	1359.858643	200.760620	-1611.397583	1364.722656	-116.143387	-1673.519897	1401.896606	55.738922	-1529.809082	1298.308105	47.037594	-1595.708496	1028.776001	339.227936	-1654.186157	1032.443115	-205.927856	-1517.544067	834.256531	392.549438	-1569.280823	827.608704	-192.209686	-1516.717407	953.916016	206.282715	-1530.806274	954.707397	-86.363586	-1738.483154	948.783020	135.881805	-1736.748413	947.453979	-9.940424	-1737.615784	948.118500	62.970691	-1743.132324	1123.911987	44.001656	-1484.649902	1063.367432	37.944897	-1472.254395	583.196777	265.755432	-1400.653198	477.474457	212.556061	-1409.911987	300.663849	267.759521	-1413.546387	93.786369	215.505219	-1459.147461	69.951675	169.555756	-1276.958984	70.695694	194.586197	-1541.202393	582.653320	-118.595604	-1571.147217	464.398773	-47.552784	-1631.822388	250.974380	-75.500778	-1692.017944	68.200577	10.538208	-1736.564575	58.242458	67.667343	-1558.435181	41.963638	8.471781
94	0.93000000	-1580.932983	1359.392090	200.850342	-1607.355225	1364.233887	-115.996101	-1669.364136	1401.544556	55.907322	-1525.846436	1297.721802	47.150730	-1590.738403	1028.041504	338.881317	-1650.462891	1031.928223	-205.599503	-1511.995667	833.496765	391.356400	-1565.375488	827.070557	-191.828415	-1512.959839	953.624023	206.468719	-1527.493530	954.325012	-86.501305	-1734.742920	948.476196	136.293121	-1733.232422	947.124329	-9.540853	-1733.987671	947.800262	63.376134	-1739.415161	1123.327515	43.934235	-1480.957886	1062.802612	37.963112	-1468.936157	582.308167	265.710419	-1397.820190	476.729126	212.069717	-1406.162720	299.718140	266.872040	-1407.449707	92.986565	214.038818	-1452.810425	68.973495	168.030457	-1270.561279	71.089882	193.343964	-1538.639648	582.175720	-118.285912	-1569.243896	463.942413	-47.338974	-1630.827515	250.748917	-75.324478	-1691.991577	68.315689	10.602313	-1736.403809	58.368561	67.784470	-1558.385132	41.938198	8.472714
95	0.94000000	-1576.761841	1358.888062	201.006912	-1603.326660	1363.724731	-115.782089	-1665.202026	1401.155396	56.152073	-1521.867920	1297.116821	47.318378	-1585.666382	1027.265625	338.594879	-1646.737915	1031.392700	-205.217194	-1506.243591	832.732697	390.178741	-1561.207336	826.594177	-191.502068	-1509.128174	953.276062	206.718002	-1524.088501	953.919861	-86.564743	-1730.919800	948.120178	136.758179	-1729.645264	946.745422	-9.095750	-1730.282532	947.432800	63.831214	-1735.648438	1122.734619	43.907707	-1477.216309	1062.229614	38.023174	-1465.684570	581.283203	265.644867	-1395.096313	475.863892	211.573654	-1402.869751	298.680725	265.994904	-1402.114624	92.110847	212.631973	-1447.258911	67.945305	166.576248	-1264.981934	71.253342	192.247726	-1535.905518	581.677246	-117.914070	-1567.256958	463.462341	-47.101055	-1629.729736	250.493958	-75.101242	-1691.972290	68.446930	10.664913	-1736.239502	58.497814	67.905838	-1558.336548	41.912445	8.479514
96	0.95000000	-1572.569336	1358.348511	201.231979	-1599.312988	1363.199219	-115.500710	-1661.035889	1400.731567	56.473869	-1517.874023	1296.497803	47.541584	-1580.495239	1026.452393	338.370941	-1643.011597	1030.840698	-204.780823	-1500.290039	831.971283	389.021057	-1556.765686	826.137207	-191.225449	-1505.215576	952.871887	207.028870	-1520.582886	953.491455	-86.549736	-1727.014648	947.718201	137.271423	-1725.982666	946.317444	-8.609935	-1726.498657	947.017822	64.330744	-1731.829712	1122.137085	43.925240	-1473.422485	1061.651733	38.128521	-1462.514771	580.128967	265.543121	-1392.470947	474.892365	211.066376	-1399.984741	297.559540	265.134033	-1397.495361	91.151276	211.304474	-1442.452026	66.852226	165.214478	-1260.178589	71.158913	191.307327	-1533.033813	581.160400	-117.491104	-1565.199829	462.961609	-46.840153	-1628.550659	250.218216	-74.837051	-1691.960449	68.593140	10.725350	-1736.073853	58.629059	68.030411	-1558.292358	41.889278	8.489392
97	0.96000000	-1568.357544	1357.775879	201.526794	-1595.314697	1362.662109	-115.151718	-1656.867920	1400.276123	56.872868	-1513.865845	1295.869507	47.821278	-1575.228027	1025.606201	338.211212	-1639.283936	1030.276733	-204.290726	-1494.137878	831.219879	387.887390	-1552.078735	825.664886	-190.991623	-1501.218262	952.412720	207.397934	-1516.970947	953.039734	-86.453438	-1723.029053	947.273926	137.827255	-1722.240723	945.841003	-8.088352	-1722.634888	946.557465	64.869452	-1727.956787	1121.539062	43.989517	-1469.574097	1061.073364	38.282032	-1459.446045	578.857117	265.386139	-1389.928955	473.831635	210.548553	-1397.454834	296.366943	264.294983	-1393.539307	90.107330	210.072556	-1438.343384	65.690636	163.961426	-1256.102295	70.787292	190.530228	-1530.062866	580.628418	-117.029625	-1563.086426	462.443420	-46.556572	-1627.315918	249.932709	-74.539658	-1691.955200	68.752335	10.783169	-1735.910522	58.762466	68.155823	-1558.255005	41.871616	8.499293
98	0.97000000	-1564.128418	1357.172852	201.892136	-1591.331909	1362.117920	-114.735291	-1652.700317	1399.792358	57.348610	-1509.843872	1295.237183	48.158245	-1569.868164	1024.731567	338.116730	-1635.554810	1029.705933	-203.747726	-1487.790649	830.486115	386.781281	-1547.215271	825.161682	-190.784157	-1497.135254	951.901611	207.820236	-1513.248779	952.565002	-86.274117	-1718.965454	946.791687	138.419983	-1718.416260	945.317139	-7.535974	-1718.690857	946.054413	65.442004	-1724.027954	1120.944946	44.102577	-1465.669556	1060.498535	38.485870	-1456.500122	577.484741	265.153412	-1387.449951	472.702209	210.023270	-1395.224487	295.119324	263.483185	-1390.188477	88.985840	208.948608	-1434.880249	64.468254	162.828156	-1252.697754	70.128738	189.921188	-1527.031860	580.084778	-116.542068	-1560.929932	461.911285	-46.249519	-1626.052612	249.649612	-74.217598	-1691.953979	68.921539	10.838326	-1735.754150	58.899555	68.278679	-1558.226807	41.862171	8.506211
99	0.98000000	-1559.884644	1356.542725	202.328308	-1587.364136	1361.571899	-114.252060	-1648.535034	1399.284424	57.900005	-1505.809326	1294.606079	48.553082	-1564.419189	1023.833801	338.087860	-1631.823486	1029.133667	-203.153168	-1481.252808	829.778229	385.705658	-1542.268982	824.627197	-190.574043	-1492.968994	951.343567	208.289536	-1509.414551	952.067932	-86.010849	-1714.827026	946.276367	139.044006	-1714.506836	944.747314	-6.957705	-1714.666931	945.511841	66.043151	-1720.041870	1120.359741	44.265709	-1461.707397	1059.932251	38.741360	-1453.698608	576.036255	264.825531	-1385.008667	471.527588	209.496048	-1393.234741	293.836426	262.704346	-1387.380371	87.800804	207.941025	-1432.003662	63.203335	161.819977	-1249.903442	69.184357	189.481552	-1523.977417	579.533020	-116.038879	-1558.742065	461.368805	-45.916885	-1624.786255	249.381058	-73.878975	-1691.951660	69.096375	10.891478	-1735.609375	59.042942	68.395065	-1558.209595	41.863415	8.507454
100	0.99000000	-1555.629272	1355.889038	202.835052	-1583.410034	1361.029663	-113.703133	-1644.374268	1398.756592	58.525295	-1501.762939	1293.981934	49.006184	-1558.885254	1022.918335	338.124268	-1628.088989	1028.565918	-202.508911	-1474.529541	829.104645	384.662750	-1537.342102	824.068817	-190.322159	-1488.724731	950.745483	208.798767	-1505.468018	951.549438	-85.663353	-1710.617554	945.733398	139.693817	-1710.510986	944.133728	-6.358265	-1710.564270	944.933563	66.667776	-1715.998169	1119.788330	44.479404	-1457.687012	1059.379150	39.048939	-1451.058716	574.544617	264.388092	-1382.575195	470.333282	208.974792	-1391.424072	292.540649	261.964874	-1385.048584	86.572746	207.054153	-1429.648682	61.923058	160.936432	-1247.651245	67.967003	189.207977	-1520.929565	578.976257	-115.526436	-1556.532593	460.819458	-45.555080	-1623.537842	249.138062	-73.530388	-1691.940674	69.271103	10.944080	-1735.480713	59.196022	68.501068	-1558.204834	41.877419	8.500831
